PathFileType	4	(X/Y/Z)	C:/Users/beibeiliu/ov580/test_trc/User2\sequence.39.1_training_dense_right.trc
DataRate	CameraRate	NumFrames	NumMarkers	Units	OrigDataRate	OrigDataStartFrame	OrigNumFrames
120	120	20	19	mm	120	60	89
Frame#	Time	ThumbCMC			ThumbMCP			ThumbIP			ThumbTip			IndexMCP			IndexPIP			IndexTip			MiddleMCP			MiddlePIP			MiddleTip			RingMCP			RingPIP			RingTip			PinkyMCP			PinkyPIP			PinkyTip			BackHand1			BackHand2			BackHand3	
		X0	Y0	Z0	X1	Y1	Z1	X2	Y2	Z2	X3	Y3	Z3	X4	Y4	Z4	X5	Y5	Z5	X6	Y6	Z6	X7	Y7	Z7	X8	Y8	Z8	X9	Y9	Z9	X10	Y10	Z10	X11	Y11	Z11	X12	Y12	Z12	X13	Y13	Z13	X14	Y14	Z14	X15	Y15	Z15	X16	Y16	Z16	X17	Y17	Z17	X18	Y18	Z18	
59	0.491667	70.3393	36.5398	30.6899	39.1791	35.7759	16.3956	19.7611	34.359	-11.2044	6.73317	29.9469	-31.4398	76.4447	72.3128	-42.741	69.4377	73.6437	-73.9076	61.5755	52.5785	-99.3351	104.863	63.6745	-60.3715	95.989	51.7693	-94.2063	81.4803	20.7397	-105.165	123.381	42.5611	-62.3344	113.829	25.4032	-88.869	95.0197	-2.17169	-91.5356	138.423	17.1445	-52.202	123.514	-3.83731	-72.4878	99.5391	-20.806	-71.2208	133.049	45.1887	-3.53939	140.203	39.8607	33.7171	106.427	56.458	23.0844	
60	0.5	68.401	38.6855	33.3192	44.256	36.3163	13.6071	18.3413	35.9767	-9.47637	5.17979	31.5679	-34.0701	80.9033	74.7198	-46.5719	67.6687	73.0609	-77.7729	56.5759	49.3088	-98.219	104.202	64.2091	-57.5332	92.0808	51.9656	-91.5369	77.7315	10.9786	-96.2705	122.215	40.09	-66.5151	109.921	21.5916	-86.4131	89.405	-7.27177	-80.7944	136.645	14.8137	-53.3009	112.651	-4.07184	-70.1784	95.3093	-24.4258	-62.279	136.608	45.2098	-3.33796	141.798	40.1549	31.0054	107.21	58.8607	18.862	
61	0.508333	69.4614	42.7075	28.823	39.8345	38.7334	16.1057	16.2227	36.8748	-11.0201	11.6596	29.9774	-35.5838	81.8722	74.7697	-43.2707	73.1473	72.3839	-78.7201	57.2541	49.3489	-92.9095	107.501	60.5693	-59.3822	89.2388	47.429	-92.3832	71.9005	13.1841	-87.3135	117.449	39.3058	-64.8893	104.406	20.878	-84.9375	84.5536	-7.0786	-71.3056	129.125	15.1066	-56.715	110.983	-6.46671	-67.9286	84.314	-22.0625	-49.3	136.23	42.8587	-6.096	142.344	38.9971	28.2783	106.19	60.1541	19.4829	
62	0.516667	69.078	46.0329	29.9494	41.3534	39.936	12.918	17.7207	36.8954	-16.4771	13.5723	28.5094	-40.1917	85.8346	74.3925	-45.6589	76.1307	72.5037	-76.6085	55.3676	44.6439	-88.6635	105.388	62.5032	-65.7064	86.2666	45.7688	-90.418	69.1667	10.3185	-75.0168	117.664	36.064	-64.74	94.3323	16.9495	-82.393	77.9425	-6.48859	-57.162	128.694	12.9248	-55.9678	101.111	-6.25701	-65.8531	81.5064	-15.958	-41.3492	135.536	42.3188	-4.20044	144.603	37.1344	28.7901	108.909	59.347	16.4883	
63	0.525	68.0273	47.6846	28.2186	40.9737	40.6934	9.66741	19.2033	35.2464	-17.8164	20.4868	24.3081	-47.2917	86.4918	75.487	-47.4804	68.8754	72.1725	-78.4059	55.7599	38.3944	-79.4417	103.534	61.8654	-63.387	84.5758	46.35	-88.0533	66.3944	11.7896	-65.1226	114.978	37.6653	-64.6759	94.0098	18.3383	-80.731	78.5588	0.388866	-54.2637	124.665	15.2961	-56.6949	98.511	0.31031	-66.5719	80.3709	-13.5233	-42.0312	135.631	44.2276	-8.26448	142.551	36.5597	28.2403	107.637	61.5004	17.0698	
64	0.533333	69.9736	46.0803	33.105	38.8526	40.7954	6.50167	21.72	31.5963	-19.7431	32.2994	21.8146	-49.5624	81.204	81.5985	-43.765	63.5362	70.1646	-75.1957	51.8162	38.3174	-67.6687	98.5739	70.7055	-60.3009	82.0084	51.2401	-85.6721	63.4316	23.2842	-63.5991	112.814	46.7617	-64.0607	90.4563	25.4759	-81.4095	76.7403	10.7067	-55.6279	121.729	23.8459	-57.3666	95.8914	6.27367	-69.9963	79.7052	-9.24141	-47.5921	134.832	45.2201	-8.30649	142.734	38.0137	27.0349	109.751	61.7071	20.1357	
65	0.541667	67.8304	48.0699	31.8683	43.2514	38.4648	5.84136	28.4198	30.3675	-25.0702	42.4503	19.6973	-49.6351	78.8815	84.1872	-42.2863	63.428	69.2546	-70.7377	51.2733	40.6074	-60.3656	102.372	77.4039	-60.813	82.6196	62.713	-84.2032	63.8949	33.7278	-66.111	111.806	57.7762	-62.9913	92.1328	42.8412	-81.6243	75.5612	20.825	-57.1927	122.502	31.6904	-58.1292	97.9959	13.8469	-73.9302	79.5014	1.67035	-55.7486	134.391	48.0996	-3.57829	139.943	39.7372	29.6757	111.586	66.4339	19.772	
66	0.55	67.5472	49.3725	32.6748	43.8787	38.1764	6.23856	33.8236	30.0634	-30.7027	53.6192	20.2114	-49.5045	75.9294	84.6119	-44.0656	56.7808	73.7429	-66.5095	47.1212	38.1777	-52.8204	102.168	82.6159	-52.9468	83.116	72.6616	-83.6446	63.6099	37.6973	-70.3939	116.215	63.5658	-62.4511	95.7693	49.6965	-84.1383	75.8795	27.9746	-68.1278	126.65	36.006	-55.7084	107.069	24.9839	-77.3071	81.239	4.16868	-67.6085	135.702	51.2039	-5.94007	141.137	41.2695	27.2737	110.5	66.1993	24.0668	
67	0.558333	67.404	49.5615	34.4386	45.2333	38.2078	4.72739	42.1251	29.1878	-31.151	57.4856	19.6994	-50.9776	74.3784	85.155	-41.852	53.5912	71.5955	-63.6657	47.9199	37.5197	-53.683	98.419	87.7805	-52.8159	84.6743	79.7205	-83.1013	62.8286	46.9452	-84.6997	119.414	64.1565	-55.3444	102.58	59.5057	-83.9254	77.1479	34.2472	-81.9667	130.515	34.8358	-53.6464	108.779	27.8663	-81.2193	86.3432	10.6671	-82.7897	133.931	51.4142	-0.906399	144.242	41.2826	30.5262	108.508	69.8267	24.2781	
68	0.566667	68.2963	47.468	34.9917	46.8715	36.4578	7.08987	37.1001	27.0657	-30.7993	56.9315	19.2406	-52.8645	73.1721	84.4413	-37.8823	54.9124	72.8121	-63.16	42.2751	40.0265	-55.7803	99.7135	87.23	-53.4542	83.4875	82.7228	-82.447	59.6277	55.1754	-96.3173	118.487	63.882	-57.2164	101.957	61.956	-84.0175	73.8221	40.6004	-96.1235	128.036	35.2113	-54.2464	114.316	28.919	-77.8365	88.3893	14.5524	-93.2366	132.116	52.9293	0.608613	142.279	43.192	28.1088	111.793	67.3516	23.5222	
69	0.575	72.3864	48.1121	31.4343	47.8515	37.0946	7.29435	39.3408	28.451	-31.0407	52.2014	18.4508	-51.0253	69.2568	87.41	-39.0576	51.3952	75.1329	-61.7845	39.0448	43.3624	-59.7833	97.0723	86.2553	-50.4112	79.5637	85.2792	-81.167	59.6183	60.1591	-103.023	115.086	61.3345	-56.4667	99.1038	59.5736	-82.8583	76.7877	40.1606	-103.008	123.199	34.3941	-55.8621	113.326	22.0081	-78.0112	91.2994	11.461	-92.9749	134.354	52.0395	-3.29656	140.309	43.3802	32.354	109.681	66.3759	28.6372	
70	0.583333	73.1806	47.5874	34.2355	48.6001	37.5516	5.46354	35.1472	29.3175	-29.133	47.9247	20.0611	-53.7615	73.8019	87.6526	-41.4484	52.9958	79.4163	-62.7091	34.9654	46.9977	-63.152	100.603	82.8076	-51.7788	80.608	85.5598	-79.6452	60.762	63.8932	-103.333	110.661	59.0803	-57.0292	95.5837	55.0453	-83.468	69.2986	38.8369	-98.3042	119.531	31.6422	-56.6289	100.992	17.9757	-77.7256	79.4782	10.1086	-85.1816	133.372	49.6997	-4.95607	140.778	42.1101	26.9728	113.361	68.2421	25.5081	
71	0.591667	72.7816	48.9431	33.3394	44.9642	39.0651	8.45229	37.6496	29.3225	-27.7728	43.1011	20.042	-54.9665	76.3497	89.4309	-38.039	58.1495	81.3315	-65.4059	37.4545	58.7994	-70.568	97.2878	83.7356	-53.1866	81.1265	82.0942	-81.6211	53.3074	57.7619	-99.8896	107.543	55.016	-59.6454	91.5465	43.8929	-82.5353	59.3931	24.3511	-86.5338	116.473	26.9998	-53.1676	92.7372	17.182	-70.3681	68.5131	3.49619	-66.4987	135.634	48.4414	-2.15239	141.561	39.1196	31.9534	112.516	64.2697	28.2723	
72	0.6	73.4661	48.0389	36.1805	45.8206	39.3598	6.26576	34.0065	30.4756	-26.1138	36.828	20.2562	-51.5017	80.9762	86.667	-37.5448	60.9828	83.2199	-68.5355	40.695	59.3786	-78.1139	97.5002	78.4156	-54.8117	78.6855	70.7532	-85.2093	51.9059	46.4837	-90.6591	104.789	51.3176	-58.7359	79.8009	37.968	-78.3368	57.4654	12.2885	-68.7515	112.14	25.8917	-51.981	81.7395	10.014	-62.1696	61.7894	-5.3807	-44.0559	134.283	47.2825	-3.42942	142.268	39.0358	25.0954	110.445	67.1251	23.4951	
73	0.608333	72.3765	49.3766	32.8264	41.4748	40.9903	11.175	29.0543	32.2546	-20.7591	27.5507	24.4296	-46.2786	80.7139	86.2051	-39.3628	61.9239	85.3728	-67.3212	43.4632	63.4445	-81.3533	94.2024	74.2118	-55.7576	74.4684	62.4279	-81.4282	48.6395	32.5701	-77.1159	101.321	47.7206	-58.3791	77.376	27.7076	-75.8155	57.7447	7.38455	-53.4471	110.078	20.9511	-52.5737	81.1343	2.26435	-57.2753	64.93	-5.78021	-28.426	130.182	46.5429	-5.44997	140.374	37.2202	28.1843	110.663	64.0161	25.7696	
74	0.616667	72.7404	50.6033	35.6644	44.3393	45.9564	11.767	25.8809	40.8847	-14.8744	22.8128	33.5285	-41.8522	81.6605	87.1252	-38.5363	64.5742	83.9944	-68.9738	47.8519	58.924	-79.5263	92.9663	74.1552	-55.5789	71.8051	56.8682	-79.8499	51.4498	27.5572	-68.6236	102.489	48.416	-57.9034	75.3937	25.9002	-69.7776	62.2038	10.1763	-45.7847	110.356	23.5405	-52.1331	79.4515	4.69417	-52.5586	71.5282	1.24182	-21.5148	133.136	47.3083	-6.53711	141.089	38.281	29.6892	111.499	67.3385	23.0812	
75	0.625	72.4286	55.5499	36.7806	42.9674	52.0152	18.4719	21.9701	48.9801	-8.67027	14.6434	44.6379	-39.3728	81.6768	90.905	-39.6149	65.7228	86.5293	-67.0858	44.6454	63.0136	-76.6692	96.0049	80.0367	-50.739	72.7221	65.4056	-80.075	51.5831	31.9659	-68.7129	101.157	49.6855	-61.1264	78.5637	33.4163	-69.1869	67.0564	14.2151	-39.2725	112.388	27.2422	-50.5902	84.5957	8.22284	-53.2064	76.7091	2.2167	-19.2661	134.72	50.6131	-4.85138	141.303	41.0375	29.9731	111.698	72.1506	25.3382	
76	0.633333	70.8397	53.4594	37.6685	39.2968	49.1242	15.7226	18.266	42.5222	-7.49432	5.61605	36.19	-32.3985	81.4509	87.1029	-37.8892	61.8311	88.8559	-66.9839	44.51	59.986	-83.938	97.5743	79.3115	-53.7455	80.9739	67.5268	-86.444	57.1323	39.0745	-87.9246	100.951	47.1972	-58.2888	77.6211	23.2633	-67.5609	69.9184	9.54831	-36.9703	111.139	24.058	-49.9883	85.2163	3.62183	-50.4143	78.0695	2.39561	-15.7445	131.812	49.8433	-0.504923	143.02	44.3121	26.6299	110.923	67.9707	27.2014	
77	0.641667	63.7335	40.6035	34.6551	37.6776	26.6679	18.5534	12.0845	17.6729	-2.87874	-1.60017	6.51215	-25.902	66.5661	75.9711	-43.2297	53.6375	74.6534	-71.0405	41.7659	56.911	-95.4625	94.8632	65.833	-58.0251	82.9932	61.5675	-90.4802	68.3751	33.5779	-112.213	99.487	27.7452	-65.9528	78.8297	7.43974	-69.0556	70.256	-6.83143	-38.0421	113.762	5.73553	-51.4734	88.4663	-16.7977	-45.286	84.1803	-12.8072	-11.3423	126.391	42.7613	-6.78064	137.532	38.6042	23.6877	103.996	57.8492	19.3902	
78	0.65	58.3656	17.5842	32.0634	33.9217	-1.73646	18.7617	6.54661	-16.9634	-5.73132	-1.02267	-30.484	-26.0625	60.5684	48.0538	-45.9557	44.2672	52.7261	-73.1919	37.2021	46.0312	-102.188	89.2512	45.986	-58.532	87.1616	44.5722	-94.9125	78.8198	32.7309	-125.624	100.346	7.78423	-66.6237	86.3143	-21.3616	-70.5489	78.7343	-30.4738	-36.893	114.433	-12.9941	-53.9297	96.7721	-37.3516	-45.8775	85.1371	-32.4869	-14.8415	121.656	32.5833	-8.69042	129.195	32.4131	25.7558	94.0151	42.3052	14.674	
